<?xml version="1.0" encoding="utf-8"?>
<!-- Generator: Adobe Illustrator 22.0.1, SVG Export Plug-In . SVG Version: 6.00 Build 0)  -->
<svg version="1.1" id="Layer_1" xmlns="http://www.w3.org/2000/svg" xmlns:xlink="http://www.w3.org/1999/xlink" x="0px" y="0px"
	 viewBox="0 0 246 152" style="enable-background:new 0 0 246 152;" xml:space="preserve">
<g>
	<g>
		<path d="M16.7,102.4c0-6.1-1.2-8.7-6.9-8.7H6v54.9h4c5.4,0,6.7-2.6,6.7-8.7V102.4z M16.7,51.7c0-6.1-1.2-8.7-6.9-8.7H6v48.2h4
			c5.4,0,6.7-2.6,6.7-8.7V51.7z M10.7,150.7H0V40.9h10.7c9.8,0,11.9,3.1,11.9,11.9v27.2c0,8.1-1.4,11.5-8.9,12.4
			c7.2,0.5,8.9,4,8.9,12.4v34C22.6,147.2,20.8,150.7,10.7,150.7"/>
	</g>
</g>
<g>
	<g>
		<path d="M62.1,50.8c0-5.7-0.9-8.9-5.4-8.9c-4.4,0-5.4,3.2-5.4,8.9v90c0,5.8,0.8,8.9,5.4,8.9c4.4,0,5.4-3.1,5.4-8.9V50.8z
			 M56.8,151.8c-9.2,0-11.3-3.8-11.3-12.1V51.9c0-8.3,2.1-12.1,11.3-12.1c9.2,0,11.3,3.8,11.3,12.1v87.8
			C68.1,148,65.9,151.8,56.8,151.8"/>
	</g>
</g>
<g>
	<g>
		<path d="M107.6,51.7c0-6.1-1.2-8.7-6.9-8.7h-3.8v48.2h4c5.4,0,6.7-2.6,6.7-8.7V51.7z M107.6,150.7v-48.3c0-6.1-1.2-8.7-6.9-8.7
			h-3.8v57.1h-6V40.9h10.7c9.8,0,11.9,3.1,11.9,11.9v27.2c0,8.1-1.4,11.5-8.9,12.4c7.2,0.5,8.9,4,8.9,12.4v45.9H107.6z"/>
	</g>
</g>
<g>
	<g>
		<polygon points="133.7,150.7 148.1,44.1 134.8,44.1 134.8,40.9 154.2,40.9 139.8,147.5 155.3,147.5 155.3,150.7 		"/>
	</g>
</g>
<g>
	<g>
		<path d="M186.8,107.9v42.8h-6v-41c-3.8-21.6-6.7-44.5-8.6-68.9h6.1c1.1,19.6,3.1,40.1,6,61.4c2.9-20.5,5.2-41,7-61.4h4
			C194.1,57.9,191.1,80.2,186.8,107.9"/>
	</g>
</g>
<g>
	<g>
		<polygon points="239.9,150.7 240.7,67.4 231.3,135.9 229.5,135.9 220,67.4 220.8,150.7 215,150.7 215,40.9 219.8,40.9 230.4,118 
			240.8,40.9 245.7,40.9 245.7,150.7 		"/>
	</g>
</g>
<g>
	<g>
		<polygon points="38.2,31.8 42.7,0.8 43.2,0.8 55.8,26.2 68.2,0.8 68.7,0.8 73.2,31.8 70.1,31.8 67.1,9.6 56.1,31.8 55.3,31.8 
			44.3,9.5 41.2,31.8 		"/>
	</g>
</g>
<g>
	<g>
		<path d="M93.7,3c-2.3,0-4.5,0.6-6.5,1.8c-2.1,1.2-3.7,2.8-4.8,4.8c-1.2,2-1.7,4.3-1.7,6.8c0,3.7,1.3,6.8,3.8,9.3
			c2.6,2.5,5.6,3.8,9.2,3.8c2.4,0,4.6-0.6,6.7-1.7c2-1.2,3.6-2.8,4.8-4.8c1.1-2,1.7-4.3,1.7-6.7c0-2.5-0.6-4.7-1.7-6.7
			c-1.1-2-2.8-3.6-4.8-4.8C98.3,3.6,96.1,3,93.7,3 M93.6,0c4.7,0,8.6,1.6,11.8,4.7c3.2,3.1,4.7,7,4.7,11.6c0,4.5-1.6,8.4-4.7,11.5
			c-3.2,3.2-7,4.7-11.5,4.7c-4.6,0-8.5-1.6-11.6-4.7c-3.2-3.1-4.7-6.9-4.7-11.4c0-3,0.7-5.7,2.2-8.3c1.4-2.5,3.4-4.5,5.9-6
			C88,0.7,90.7,0,93.6,0"/>
	</g>
</g>
<g>
	<g>
		<polygon points="115.9,31.8 115.9,0.8 116.6,0.8 137.2,24.5 137.2,0.8 140.2,0.8 140.2,31.8 139.5,31.8 119.1,8.3 119.1,31.8 		
			"/>
	</g>
</g>
<g>
	<g>
		<rect x="146.9" y="0.8" width="3.1" height="31"/>
	</g>
</g>
<g>
	<g>
		<polygon points="156.7,0.8 159.8,0.8 159.8,12.4 172.2,0.8 176.3,0.8 161.5,14.7 177.5,31.8 173.4,31.8 159.8,17.3 159.8,31.8 
			156.7,31.8 		"/>
	</g>
</g>
<g>
	<g>
		<path d="M194,7.4l-5.3,11.2h10.6L194,7.4z M194.3,0.8l14.4,31h-3.3l-4.9-10.2h-13.3l-4.8,10.2H179l14.6-31H194.3z"/>
	</g>
</g>
<g>
	<g>
		<path d="M26.5,16.6c0,3.6-2.9,6.5-6.5,6.5c-3.6,0-6.5-2.9-6.5-6.5c0-3.6,2.9-6.5,6.5-6.5C23.6,10.1,26.5,13,26.5,16.6"/>
	</g>
</g>
<g>
	<g>
		<path d="M233.3,16.6c0,3.6-2.9,6.5-6.5,6.5c-3.6,0-6.5-2.9-6.5-6.5c0-3.6,2.9-6.5,6.5-6.5C230.4,10.1,233.3,13,233.3,16.6"/>
	</g>
</g>
</svg>
